<svg xmlns="http://www.w3.org/2000/svg" width="408" height="70" fill="none" viewBox="0 0 408 70"><g clip-path="url(#a)"><path fill="#fff" d="m72.2072 37.8824-7.167-21.8238-14.8563.7167-7.6115 24.0841 3.8994-.3937-9.2804 29.5342h14.4352l1.3102-4.1191 17.1569-.063 1.3336 4.1821h15.3633L76.1065 37.4886l-3.8993.3938ZM56.8907 53.4607l4.5622-14.3182 4.5934 14.1764-9.1556.1418Zm-18.1004.268c.08-4.4407-1.5211-8.7449-4.4764-12.0342l-3.8993.3938c1.1964-2.564 1.8143-5.3642 1.8093-8.1987 0-8.9626-5.9113-15.9406-13.1173-15.594L.015625 19.217v25.9271l3.899305-.3938v25.2498H25.6029c7.2371 0 13.1796-7.2851 13.1796-16.2714h.0078ZM12.6494 30.5503l3.213-.1181c1.7781-.0709 3.2286 1.6696 3.2286 3.8827s-1.4505 4.056-3.2286 4.1033l-3.213.1024v-7.9703Zm9.7171 27.4314-5.7944.063v-7.9703l5.7944-.1103c1.7858 0 3.2442 1.7406 3.2442 3.9379 0 2.1973-1.4584 4.056-3.2442 4.0797ZM222.237 22.8401 216.95 8.71094h-.039l-19.146.92148-5.778 16.26348 3.899-.3938-15.8 44.4982h18.459l1.685-4.6703 22.07-.0788 1.755 4.7255h19.878l-17.773-47.554-3.923.4174Zm-16.899 28.408 5.864-16.2478 5.92 16.0981-11.784.1497Zm41.441-30.8654v49.6175h19.177V18.4531l-19.177 1.9296Zm-81.737 31.4635 8.423-24.1157-3.915.3938 6.075-17.4134-.827.0394-17.11.827-16.728.8033-6.426 19.2563 16.83-1.6854 3.914-.3938-13.92 40.4422h34.251l6.512-18.4057-17.079.252Zm-34.431-38.9614-15.574.756v25.6987l-3.283-5.4185-11.8848-19.5477-14.7784.7167v21.5088l3.9227-.3938V70h14.7785V46.223L118.952 70h15.582V31.637l-3.923.3938v-19.146Z"/><path fill="red" d="M308.545 45.1361c.035.8139-.244 1.6098-.778 2.2207-.533.6109-1.28.9892-2.084 1.0557l-5.101.063V42.041l5.101-.0945c.396.016.785.1117 1.145.2814.359.1698.682.4101.948.7071.267.2969.472.6445.604 1.0224.132.378.188.7787.165 1.1787Zm-2.293-16.1532c.03-.3983-.021-.7985-.15-1.1761-.129-.3776-.333-.7246-.6-1.0196-.267-.2951-.59-.5319-.951-.6961-.36-.1642-.75-.2521-1.146-.2585l-2.823.1024v6.4345l2.823-.0867c.806-.0703 1.553-.4537 2.084-1.0693.531-.6156.804-1.4153.763-2.2306Zm60.525 23.3675-43.602 17.5787h-45.404V17.2952l-3.899.2993V6.07223L399.43 0v5.04838l3.899-.39379V37.6227l-23.279 9.38V26.4784l11.581-.3859V11.8531l-11.581.567-13.257.6458-10.981.5435v13.696l10.981-.3702-.016 25.4152Zm-46.573-7.3875c.025-1.8068-.313-3.6001-.992-5.2717-.68-1.6716-1.687-3.187-2.962-4.4549 1.054-2.0538 1.602-4.3339 1.598-6.6472 0-7.2457-5.217-12.869-11.565-12.554l-16.783.7876v41.2691h19.076c6.379 0 11.628-5.8911 11.628-13.1604v.0315Zm32.262-31.1882-17.445.8506-12.025.5907v42.9073h29.424V44.4746l-17.399.2599v-3.3394l11.105-.2126V31.0227l-11.105.3308v-3.3472l17.399-.5907.046-13.6409Zm31.483 34.1731v10.1676h-13.257v-3.1503l-28.161 14.964h65.508V35.189l-24.09 12.7588ZM242.856 20.7766l19.177-1.9217V6.5293l-19.177.92146V20.7766Z"/></g><defs><clipPath id="a"><path fill="#fff" d="M0 0h408v70H0z"/></clipPath></defs></svg>
